<?xml version="1.0" standalone="no"?>
<!DOCTYPE svg PUBLIC "-//W3C//DTD SVG 20010904//EN"
 "http://www.w3.org/TR/2001/REC-SVG-20010904/DTD/svg10.dtd">
<svg version="1.0" xmlns="http://www.w3.org/2000/svg"
 width="1252.000000pt" height="491.000000pt" viewBox="0 0 1252.000000 491.000000"
 preserveAspectRatio="xMidYMid meet">
<metadata>
Created by potrace 1.16, written by Peter Selinger 2001-2019
</metadata>
<g transform="translate(0.000000,491.000000) scale(0.100000,-0.100000)"
fill="#000000" stroke="none">
<path d="M1350 4814 c-155 -42 -394 -199 -517 -341 -74 -85 -148 -206 -183
-294 -34 -88 -92 -313 -115 -447 -27 -157 -35 -366 -23 -640 5 -140 7 -256 4
-260 -4 -3 -60 -5 -126 -5 -114 2 -122 0 -150 -23 -16 -14 -35 -43 -41 -64
-10 -32 -9 -44 7 -76 28 -57 64 -73 195 -86 63 -6 115 -12 116 -13 7 -4 -19
-282 -37 -386 -51 -302 -108 -436 -288 -683 -73 -100 -96 -158 -82 -207 21
-73 70 -109 149 -109 45 0 158 54 205 98 126 120 271 465 341 817 19 94 41
235 50 314 8 80 17 147 19 149 20 20 1294 25 1374 5 19 -4 22 -12 22 -54 0
-136 49 -401 106 -573 53 -157 250 -549 306 -605 68 -69 112 -94 168 -95 61
-1 97 23 128 87 29 60 23 100 -24 165 -187 258 -273 490 -319 862 -8 69 -18
140 -21 158 l-5 32 83 0 c95 0 122 12 144 66 31 75 5 173 -52 194 -14 6 -58
10 -99 10 l-73 0 -1 137 c-1 76 -4 147 -6 158 -2 11 -9 103 -15 205 -24 402
-49 568 -114 764 -69 207 -150 343 -285 476 -106 105 -201 165 -350 220 -156
57 -368 76 -491 44z m370 -273 c68 -26 181 -112 237 -180 103 -125 199 -389
242 -662 20 -127 63 -867 52 -881 -4 -4 -314 -4 -690 -1 l-684 6 6 344 c7 364
16 482 48 631 37 170 87 295 168 418 69 104 215 238 321 294 98 52 214 64 300
31z"/>
<path d="M6289 3856 c-281 -59 -531 -273 -680 -581 -96 -198 -137 -368 -146
-598 -18 -479 141 -893 453 -1176 128 -117 252 -179 474 -238 117 -31 150 -35
250 -35 575 1 1014 590 986 1322 -16 436 -192 828 -481 1070 -106 90 -242 156
-420 205 -154 43 -322 55 -436 31z m410 -241 c110 -39 291 -192 373 -317 212
-320 283 -742 187 -1117 -60 -236 -181 -440 -334 -564 -132 -106 -250 -150
-405 -151 -99 -1 -109 1 -170 31 -258 128 -451 407 -531 768 -26 116 -36 379
-20 496 27 191 103 395 201 538 105 156 280 282 445 320 64 15 208 13 254 -4z"/>
<path d="M10939 3835 c-376 -59 -639 -251 -795 -580 -42 -87 -52 -146 -34
-201 26 -81 83 -113 175 -100 65 10 95 42 161 168 99 190 194 297 329 373 129
72 249 103 431 112 143 6 181 -1 294 -55 100 -50 194 -194 251 -387 29 -99 32
-123 32 -240 0 -116 -3 -139 -27 -210 -47 -136 -104 -210 -196 -254 -51 -24
-64 -26 -195 -25 -103 0 -195 9 -350 32 -242 37 -489 44 -600 17 -150 -36
-293 -143 -350 -262 -29 -61 -65 -212 -65 -276 0 -108 49 -253 125 -367 58
-87 92 -118 205 -184 174 -103 351 -142 600 -133 317 12 539 83 769 248 46 33
84 59 85 57 1 -2 19 -38 40 -81 45 -93 127 -182 205 -221 72 -37 177 -40 244
-7 53 26 135 111 162 167 44 94 59 220 29 262 -24 34 -69 54 -109 46 -47 -9
-81 -46 -95 -104 -14 -58 -44 -100 -70 -100 -41 0 -70 23 -81 64 -23 83 -24
149 -15 521 5 209 10 515 10 680 1 299 1 300 -28 415 -49 194 -98 290 -200
398 -175 184 -581 282 -937 227z m212 -1606 c216 -31 377 -40 490 -26 l66 8 7
-117 c7 -113 6 -119 -19 -170 -37 -76 -99 -129 -295 -252 -175 -110 -362 -166
-560 -167 -139 0 -227 23 -312 85 -152 109 -230 362 -155 506 14 28 41 64 59
79 47 40 132 77 197 86 93 13 302 0 522 -32z"/>
<path d="M9102 3819 c-134 -23 -318 -106 -433 -195 -93 -71 -234 -248 -302
-379 l-21 -40 -12 120 c-15 139 -38 253 -60 301 -29 61 -90 119 -154 148 -124
56 -279 21 -382 -87 -69 -72 -91 -124 -96 -234 l-4 -91 44 -44 c48 -49 92 -64
136 -47 42 16 70 48 87 99 18 53 48 70 87 49 21 -11 21 -13 14 -288 -3 -152
-13 -458 -21 -681 -8 -223 -18 -552 -22 -731 l-6 -325 26 -55 c14 -30 32 -61
39 -70 22 -27 81 -59 110 -59 48 0 115 37 146 79 l29 40 6 333 c7 410 30 611
103 903 119 471 335 825 579 946 93 46 221 73 303 64 106 -11 217 -94 291
-218 49 -83 63 -131 70 -242 4 -55 12 -109 18 -120 52 -92 187 -122 262 -59
43 36 55 82 48 188 -7 100 -30 192 -70 276 -37 78 -152 226 -212 273 -60 48
-187 110 -270 133 -72 19 -259 27 -333 13z"/>
<path d="M5012 3803 c-23 -8 -61 -34 -85 -57 -42 -43 -100 -146 -112 -201 -4
-17 -9 -36 -11 -44 -3 -8 -27 8 -69 48 -141 131 -370 226 -615 254 -360 40
-738 -201 -939 -602 -168 -334 -203 -765 -90 -1118 85 -266 240 -482 434 -608
108 -70 176 -97 338 -139 113 -30 156 -36 238 -36 241 0 447 88 631 269 43 42
78 76 79 76 0 0 3 -16 5 -35 25 -202 97 -298 309 -415 315 -172 447 -381 375
-590 -43 -125 -134 -251 -210 -290 -48 -25 -156 -45 -246 -45 -141 0 -232 42
-467 221 -312 236 -415 294 -622 353 -254 72 -467 84 -633 37 -278 -80 -500
-291 -608 -578 -41 -108 -20 -175 70 -228 51 -30 103 -32 154 -6 38 20 37 18
133 213 121 248 347 391 615 390 121 0 193 -16 288 -64 92 -46 129 -71 338
-230 249 -189 338 -235 593 -304 128 -35 151 -38 265 -38 230 1 350 44 468
168 161 170 244 418 198 595 -53 207 -188 359 -466 525 -69 41 -141 92 -161
113 -63 66 -65 77 -59 468 5 415 6 860 2 1263 -3 297 0 328 33 316 8 -3 32
-34 54 -69 47 -76 85 -100 145 -91 54 9 85 30 102 71 41 100 -12 239 -126 332
-36 29 -89 62 -118 73 -63 24 -167 26 -230 3z m-681 -267 c208 -109 363 -328
439 -621 30 -116 39 -394 16 -525 -65 -370 -276 -677 -550 -800 -86 -38 -157
-53 -258 -53 -77 0 -94 3 -150 31 -217 107 -387 361 -454 677 -23 111 -23 368
0 488 70 362 271 652 538 777 91 42 177 60 279 57 71 -3 94 -8 140 -31z"/>
</g>
</svg>
